<svg width="90" height="134" viewBox="0 0 90 134" fill="none" xmlns="http://www.w3.org/2000/svg">
<g clip-path="url(#clip0)">
<path fill-rule="evenodd" clip-rule="evenodd" d="M49.546 92.593L89.9004 52.2384L50.7769 13.1151C49.5626 13.7264 48.3951 14.4625 47.2943 15.3234L81.4599 49.4891L33.1566 44.054L31.6504 30.6672L27.9692 34.3274L28.0438 34.3364L29.5981 47.6116L42.8735 49.1662L47.152 84.6392L15.5341 53.0213V58.5811L49.546 92.593ZM46.8883 49.5883L82.7407 53.7019L51.1932 85.2495L46.8883 49.5883Z" fill="#0748B4"/>
<path fill-rule="evenodd" clip-rule="evenodd" d="M17.5613 74.6953L17.573 74.7133L14.8696 77.3934V132.893L29.8658 118.026V92.1662L39.4599 82.4829L24.5841 67.6072L17.5613 74.6953ZM64.7515 27.0649L76.3161 38.6294C78.7356 28.3916 76.0805 17.1809 68.3507 9.07825L64.7851 12.677C68.5088 16.7334 68.4975 23.022 64.7515 27.0649Z" fill="url(#paint0_linear)"/>
<path fill-rule="evenodd" clip-rule="evenodd" d="M0 32.8785V47.4427V118.33L14.9962 133.043V48.171L44.8691 18.3395C50.3435 12.8966 58.0858 11.0834 65.0714 12.8999L65.0799 12.8916L65.0941 12.9058C68.534 13.8043 71.7893 15.5833 74.4986 18.2428C72.987 15.0592 71.1474 11.837 68.4997 9.20453C56.1562 -3.06817 36.1432 -3.06818 23.7994 9.20453L1.14498e-06 32.8672L0 32.8785Z" fill="url(#paint1_linear)"/>
<path fill-rule="evenodd" clip-rule="evenodd" d="M9.22844 27.6924L21.1556 15.7653L21.6631 30.4838L13.9657 38.1813V49.7667L15.2594 48.4732C17.7464 45.9861 21.9987 47.7476 21.9987 51.2645C21.9987 52.3114 21.5828 53.3158 20.8424 54.056L9.22844 65.7391V42.5739V27.6924Z" fill="#0748B4"/>
</g>
<defs>
<linearGradient id="paint0_linear" x1="46.0255" y1="9.07825" x2="46.0255" y2="132.893" gradientUnits="userSpaceOnUse">
<stop stop-color="#0748B4"/>
<stop offset="1" stop-color="#56CCF2"/>
</linearGradient>
<linearGradient id="paint1_linear" x1="37.3696" y1="2.91782e-06" x2="37.3696" y2="133.043" gradientUnits="userSpaceOnUse">
<stop stop-color="#56CCF2"/>
<stop offset="1" stop-color="#0748B4"/>
</linearGradient>
<clipPath id="clip0">
<rect width="90" height="133.043" fill="white"/>
</clipPath>
</defs>
</svg>
